<?xml version="1.0" standalone="no"?>
<!DOCTYPE svg PUBLIC "-//W3C//DTD SVG 20010904//EN"
 "http://www.w3.org/TR/2001/REC-SVG-20010904/DTD/svg10.dtd">
<svg version="1.0" xmlns="http://www.w3.org/2000/svg"
 width="840.000000pt" height="840.000000pt" viewBox="0 0 840.000000 840.000000"
 preserveAspectRatio="xMidYMid meet">
<metadata>
Created by potrace 1.11, written by Peter Selinger 2001-2013
</metadata>
<g transform="translate(0.000000,840.000000) scale(0.100000,-0.100000)"
fill="#000000" stroke="none">
<path d="M1405 7868 c-212 -14 -433 -93 -620 -224 -90 -63 -260 -232 -311
-309 -21 -33 -46 -68 -54 -77 -49 -54 -140 -276 -175 -428 -27 -113 -32 -363
-10 -476 79 -402 256 -644 680 -928 253 -169 304 -205 448 -319 258 -203 572
-526 736 -758 51 -72 156 -224 168 -244 7 -11 30 -49 51 -85 119 -198 219
-405 317 -660 20 -52 40 -104 45 -116 4 -12 25 -75 44 -142 119 -396 167 -685
237 -1427 51 -541 355 -966 807 -1125 159 -57 220 -65 457 -64 160 1 204 4
280 23 311 76 535 233 721 506 93 136 178 347 198 490 4 28 11 64 16 80 5 17
12 68 14 115 3 47 10 130 16 185 6 55 15 141 20 190 33 319 78 582 141 829 74
290 168 545 304 821 79 160 205 387 224 405 4 3 12 16 20 30 27 49 183 260
275 370 236 285 528 549 841 761 44 30 82 57 83 62 2 4 8 7 13 7 9 0 176 106
189 120 3 3 34 27 70 54 36 28 72 55 80 62 8 6 53 49 100 95 168 165 264 339
331 594 21 81 23 111 23 290 -1 200 -1 200 -38 325 -143 493 -517 846 -1004
950 -91 20 -125 22 -280 18 -169 -5 -182 -7 -297 -42 -177 -54 -338 -137 -675
-346 -96 -59 -234 -137 -301 -170 -46 -22 -91 -44 -99 -49 -13 -7 -16 -161
-21 -1257 -5 -1352 -1 -1243 -55 -1419 -54 -176 -196 -406 -323 -524 -159
-147 -320 -243 -509 -300 -130 -40 -199 -51 -345 -56 -267 -8 -501 57 -727
204 -98 64 -250 207 -320 300 -132 176 -216 389 -245 620 -4 29 -7 579 -7
1222 0 643 -2 1178 -5 1188 -3 11 -48 40 -116 74 -103 51 -176 94 -349 201
-484 301 -715 378 -1063 354z"/>
<path d="M3980 7197 c-271 -84 -485 -288 -570 -542 -50 -150 -51 -188 -47
-1022 4 -860 1 -823 71 -996 80 -196 248 -361 458 -448 110 -46 180 -59 314
-59 150 0 239 21 381 91 216 108 366 297 432 549 l22 85 -3 855 -4 855 -25 70
c-105 286 -311 486 -578 561 -36 10 -113 17 -216 20 -146 4 -167 2 -235 -19z"/>
</g>
</svg>
